<mxfile host="app.diagrams.net" agent="Mozilla/5.0 (Windows NT 10.0; Win64; x64) AppleWebKit/537.36 (KHTML, like Gecko) Chrome/131.0.0.0 Safari/537.36" version="26.0.5">
  <diagram name="Page-1" id="SI8CDXNADL_zUTo1Ev1C">
    <mxGraphModel dx="1674" dy="1886" grid="1" gridSize="10" guides="1" tooltips="1" connect="1" arrows="1" fold="1" page="1" pageScale="1" pageWidth="850" pageHeight="1100" math="0" shadow="0">
      <root>
        <mxCell id="0" />
        <mxCell id="1" parent="0" />
        <mxCell id="-elTecYeYdrrboDG4D2M-9" style="edgeStyle=orthogonalEdgeStyle;rounded=0;orthogonalLoop=1;jettySize=auto;html=1;exitX=1;exitY=0.5;exitDx=0;exitDy=0;" parent="1" source="-elTecYeYdrrboDG4D2M-1" target="-elTecYeYdrrboDG4D2M-2" edge="1">
          <mxGeometry relative="1" as="geometry" />
        </mxCell>
        <mxCell id="-elTecYeYdrrboDG4D2M-1" value="Welcome" style="rounded=0;whiteSpace=wrap;html=1;" parent="1" vertex="1">
          <mxGeometry x="240" y="260" width="120" height="60" as="geometry" />
        </mxCell>
        <mxCell id="-elTecYeYdrrboDG4D2M-14" style="edgeStyle=orthogonalEdgeStyle;rounded=0;orthogonalLoop=1;jettySize=auto;html=1;exitX=0.5;exitY=1;exitDx=0;exitDy=0;entryX=0;entryY=0.5;entryDx=0;entryDy=0;fillColor=#32FF1C;strokeColor=#80FF00;" parent="1" source="-elTecYeYdrrboDG4D2M-2" target="-elTecYeYdrrboDG4D2M-13" edge="1">
          <mxGeometry relative="1" as="geometry" />
        </mxCell>
        <mxCell id="-elTecYeYdrrboDG4D2M-63" value="Yes" style="edgeLabel;html=1;align=center;verticalAlign=middle;resizable=0;points=[];" parent="-elTecYeYdrrboDG4D2M-14" vertex="1" connectable="0">
          <mxGeometry x="-0.2228" y="-1" relative="1" as="geometry">
            <mxPoint x="28" y="-1" as="offset" />
          </mxGeometry>
        </mxCell>
        <mxCell id="-elTecYeYdrrboDG4D2M-61" style="edgeStyle=orthogonalEdgeStyle;rounded=0;orthogonalLoop=1;jettySize=auto;html=1;exitX=0.5;exitY=0;exitDx=0;exitDy=0;entryX=0.5;entryY=1;entryDx=0;entryDy=0;strokeColor=#80FF00;" parent="1" source="-elTecYeYdrrboDG4D2M-2" target="-elTecYeYdrrboDG4D2M-19" edge="1">
          <mxGeometry relative="1" as="geometry" />
        </mxCell>
        <mxCell id="-elTecYeYdrrboDG4D2M-62" value="No" style="edgeLabel;html=1;align=center;verticalAlign=middle;resizable=0;points=[];" parent="-elTecYeYdrrboDG4D2M-61" vertex="1" connectable="0">
          <mxGeometry x="0.3097" y="-1" relative="1" as="geometry">
            <mxPoint as="offset" />
          </mxGeometry>
        </mxCell>
        <mxCell id="-elTecYeYdrrboDG4D2M-2" value="Hosting?" style="rhombus;whiteSpace=wrap;html=1;" parent="1" vertex="1">
          <mxGeometry x="440" y="250" width="80" height="80" as="geometry" />
        </mxCell>
        <mxCell id="-elTecYeYdrrboDG4D2M-73" style="edgeStyle=orthogonalEdgeStyle;rounded=0;orthogonalLoop=1;jettySize=auto;html=1;exitX=0.5;exitY=1;exitDx=0;exitDy=0;strokeColor=#80FF00;" parent="1" source="-elTecYeYdrrboDG4D2M-8" edge="1">
          <mxGeometry relative="1" as="geometry">
            <mxPoint x="630" y="440" as="targetPoint" />
            <Array as="points">
              <mxPoint x="820" y="440" />
            </Array>
          </mxGeometry>
        </mxCell>
        <mxCell id="-elTecYeYdrrboDG4D2M-8" value="Login&lt;div&gt;(use name if exists)&lt;/div&gt;&lt;div&gt;&lt;br&gt;&lt;/div&gt;" style="rounded=0;whiteSpace=wrap;html=1;" parent="1" vertex="1">
          <mxGeometry x="760" y="350" width="120" height="60" as="geometry" />
        </mxCell>
        <mxCell id="-elTecYeYdrrboDG4D2M-17" style="edgeStyle=orthogonalEdgeStyle;rounded=0;orthogonalLoop=1;jettySize=auto;html=1;strokeColor=#80FF00;" parent="1" target="-elTecYeYdrrboDG4D2M-8" edge="1">
          <mxGeometry relative="1" as="geometry">
            <mxPoint x="670" y="380" as="sourcePoint" />
          </mxGeometry>
        </mxCell>
        <mxCell id="-elTecYeYdrrboDG4D2M-18" value="No" style="edgeLabel;html=1;align=center;verticalAlign=middle;resizable=0;points=[];" parent="-elTecYeYdrrboDG4D2M-17" vertex="1" connectable="0">
          <mxGeometry x="0.0863" y="1" relative="1" as="geometry">
            <mxPoint x="-7" y="1" as="offset" />
          </mxGeometry>
        </mxCell>
        <mxCell id="-elTecYeYdrrboDG4D2M-71" style="edgeStyle=orthogonalEdgeStyle;rounded=0;orthogonalLoop=1;jettySize=auto;html=1;exitX=0.5;exitY=1;exitDx=0;exitDy=0;strokeColor=#80FF00;entryX=0;entryY=0.5;entryDx=0;entryDy=0;" parent="1" source="-elTecYeYdrrboDG4D2M-13" target="YMsk-EEWncmvtDYEUD41-1" edge="1">
          <mxGeometry relative="1" as="geometry">
            <mxPoint x="480" y="-80" as="targetPoint" />
            <Array as="points">
              <mxPoint x="630" y="440" />
              <mxPoint x="200" y="440" />
              <mxPoint x="200" y="-70" />
              <mxPoint x="310" y="-70" />
              <mxPoint x="310" y="-75" />
            </Array>
          </mxGeometry>
        </mxCell>
        <mxCell id="-elTecYeYdrrboDG4D2M-72" value="Yes" style="edgeLabel;html=1;align=center;verticalAlign=middle;resizable=0;points=[];" parent="-elTecYeYdrrboDG4D2M-71" vertex="1" connectable="0">
          <mxGeometry x="-0.8685" y="1" relative="1" as="geometry">
            <mxPoint as="offset" />
          </mxGeometry>
        </mxCell>
        <mxCell id="-elTecYeYdrrboDG4D2M-13" value="Is logged in" style="rhombus;whiteSpace=wrap;html=1;" parent="1" vertex="1">
          <mxGeometry x="590" y="340" width="80" height="80" as="geometry" />
        </mxCell>
        <mxCell id="-elTecYeYdrrboDG4D2M-27" style="edgeStyle=orthogonalEdgeStyle;rounded=0;orthogonalLoop=1;jettySize=auto;html=1;exitX=1;exitY=0.5;exitDx=0;exitDy=0;strokeColor=#80FF00;" parent="1" source="-elTecYeYdrrboDG4D2M-19" target="-elTecYeYdrrboDG4D2M-25" edge="1">
          <mxGeometry relative="1" as="geometry" />
        </mxCell>
        <mxCell id="-elTecYeYdrrboDG4D2M-28" value="No" style="edgeLabel;html=1;align=center;verticalAlign=middle;resizable=0;points=[];" parent="-elTecYeYdrrboDG4D2M-27" vertex="1" connectable="0">
          <mxGeometry x="-0.1365" y="1" relative="1" as="geometry">
            <mxPoint as="offset" />
          </mxGeometry>
        </mxCell>
        <mxCell id="-elTecYeYdrrboDG4D2M-30" style="edgeStyle=orthogonalEdgeStyle;rounded=0;orthogonalLoop=1;jettySize=auto;html=1;exitX=0.5;exitY=0;exitDx=0;exitDy=0;entryX=0;entryY=0.5;entryDx=0;entryDy=0;strokeColor=#80FF00;" parent="1" source="-elTecYeYdrrboDG4D2M-19" target="-elTecYeYdrrboDG4D2M-48" edge="1">
          <mxGeometry relative="1" as="geometry">
            <mxPoint x="620" y="-65" as="targetPoint" />
            <Array as="points">
              <mxPoint x="480" y="-75" />
            </Array>
          </mxGeometry>
        </mxCell>
        <mxCell id="-elTecYeYdrrboDG4D2M-31" value="Yes" style="edgeLabel;html=1;align=center;verticalAlign=middle;resizable=0;points=[];" parent="-elTecYeYdrrboDG4D2M-30" vertex="1" connectable="0">
          <mxGeometry x="0.195" y="1" relative="1" as="geometry">
            <mxPoint as="offset" />
          </mxGeometry>
        </mxCell>
        <mxCell id="-elTecYeYdrrboDG4D2M-19" value="Is logged in" style="rhombus;whiteSpace=wrap;html=1;" parent="1" vertex="1">
          <mxGeometry x="440" y="25" width="80" height="80" as="geometry" />
        </mxCell>
        <mxCell id="-elTecYeYdrrboDG4D2M-40" style="edgeStyle=orthogonalEdgeStyle;rounded=0;orthogonalLoop=1;jettySize=auto;html=1;exitX=1;exitY=0.5;exitDx=0;exitDy=0;strokeColor=#80FF00;" parent="1" source="-elTecYeYdrrboDG4D2M-25" edge="1">
          <mxGeometry relative="1" as="geometry">
            <mxPoint x="790" y="65" as="targetPoint" />
          </mxGeometry>
        </mxCell>
        <mxCell id="-elTecYeYdrrboDG4D2M-25" value="Name" style="rounded=0;whiteSpace=wrap;html=1;" parent="1" vertex="1">
          <mxGeometry x="610" y="37.5" width="120" height="55" as="geometry" />
        </mxCell>
        <mxCell id="-elTecYeYdrrboDG4D2M-41" value="Votes" style="rounded=0;whiteSpace=wrap;html=1;" parent="1" vertex="1">
          <mxGeometry x="960" y="-105" width="120" height="60" as="geometry" />
        </mxCell>
        <mxCell id="-elTecYeYdrrboDG4D2M-42" style="edgeStyle=orthogonalEdgeStyle;rounded=0;orthogonalLoop=1;jettySize=auto;html=1;exitX=1;exitY=0.5;exitDx=0;exitDy=0;strokeColor=#80FF00;" parent="1" source="-elTecYeYdrrboDG4D2M-46" edge="1">
          <mxGeometry relative="1" as="geometry">
            <mxPoint x="960" y="-75" as="targetPoint" />
          </mxGeometry>
        </mxCell>
        <mxCell id="-elTecYeYdrrboDG4D2M-43" value="No" style="edgeLabel;html=1;align=center;verticalAlign=middle;resizable=0;points=[];" parent="-elTecYeYdrrboDG4D2M-42" vertex="1" connectable="0">
          <mxGeometry x="-0.2267" y="-2" relative="1" as="geometry">
            <mxPoint x="10" y="-2" as="offset" />
          </mxGeometry>
        </mxCell>
        <mxCell id="-elTecYeYdrrboDG4D2M-44" style="edgeStyle=orthogonalEdgeStyle;rounded=0;orthogonalLoop=1;jettySize=auto;html=1;exitX=0.5;exitY=0;exitDx=0;exitDy=0;entryX=0;entryY=0.5;entryDx=0;entryDy=0;strokeColor=#80FF00;" parent="1" source="-elTecYeYdrrboDG4D2M-46" target="-elTecYeYdrrboDG4D2M-47" edge="1">
          <mxGeometry relative="1" as="geometry" />
        </mxCell>
        <mxCell id="-elTecYeYdrrboDG4D2M-45" value="Yes" style="edgeLabel;html=1;align=center;verticalAlign=middle;resizable=0;points=[];" parent="-elTecYeYdrrboDG4D2M-44" vertex="1" connectable="0">
          <mxGeometry x="0.2104" y="-2" relative="1" as="geometry">
            <mxPoint as="offset" />
          </mxGeometry>
        </mxCell>
        <mxCell id="-elTecYeYdrrboDG4D2M-46" value="Has votes" style="rhombus;whiteSpace=wrap;html=1;" parent="1" vertex="1">
          <mxGeometry x="780" y="-115" width="80" height="80" as="geometry" />
        </mxCell>
        <mxCell id="-elTecYeYdrrboDG4D2M-47" value="Game" style="rounded=0;whiteSpace=wrap;html=1;" parent="1" vertex="1">
          <mxGeometry x="960" y="-225" width="120" height="60" as="geometry" />
        </mxCell>
        <mxCell id="-elTecYeYdrrboDG4D2M-50" style="edgeStyle=orthogonalEdgeStyle;rounded=0;orthogonalLoop=1;jettySize=auto;html=1;exitX=0.5;exitY=1;exitDx=0;exitDy=0;strokeColor=#80FF00;" parent="1" source="-elTecYeYdrrboDG4D2M-48" target="-elTecYeYdrrboDG4D2M-25" edge="1">
          <mxGeometry relative="1" as="geometry" />
        </mxCell>
        <mxCell id="-elTecYeYdrrboDG4D2M-51" value="No" style="edgeLabel;html=1;align=center;verticalAlign=middle;resizable=0;points=[];" parent="-elTecYeYdrrboDG4D2M-50" vertex="1" connectable="0">
          <mxGeometry x="-0.3261" y="-1" relative="1" as="geometry">
            <mxPoint as="offset" />
          </mxGeometry>
        </mxCell>
        <mxCell id="-elTecYeYdrrboDG4D2M-52" style="edgeStyle=orthogonalEdgeStyle;rounded=0;orthogonalLoop=1;jettySize=auto;html=1;exitX=1;exitY=0.5;exitDx=0;exitDy=0;" parent="1" source="-elTecYeYdrrboDG4D2M-48" target="-elTecYeYdrrboDG4D2M-46" edge="1">
          <mxGeometry relative="1" as="geometry" />
        </mxCell>
        <mxCell id="-elTecYeYdrrboDG4D2M-53" value="Yes" style="edgeLabel;html=1;align=center;verticalAlign=middle;resizable=0;points=[];" parent="-elTecYeYdrrboDG4D2M-52" vertex="1" connectable="0">
          <mxGeometry x="-0.3184" y="-1" relative="1" as="geometry">
            <mxPoint x="12" y="-1" as="offset" />
          </mxGeometry>
        </mxCell>
        <mxCell id="YMsk-EEWncmvtDYEUD41-4" value="" style="edgeStyle=orthogonalEdgeStyle;rounded=0;orthogonalLoop=1;jettySize=auto;html=1;strokeColor=#80FF00;" parent="1" source="-elTecYeYdrrboDG4D2M-48" target="-elTecYeYdrrboDG4D2M-46" edge="1">
          <mxGeometry relative="1" as="geometry" />
        </mxCell>
        <mxCell id="-elTecYeYdrrboDG4D2M-48" value="Has name" style="rhombus;whiteSpace=wrap;html=1;" parent="1" vertex="1">
          <mxGeometry x="630" y="-115" width="80" height="80" as="geometry" />
        </mxCell>
        <mxCell id="-elTecYeYdrrboDG4D2M-56" style="edgeStyle=orthogonalEdgeStyle;rounded=0;orthogonalLoop=1;jettySize=auto;html=1;exitX=0.5;exitY=0;exitDx=0;exitDy=0;entryX=0.5;entryY=1;entryDx=0;entryDy=0;" parent="1" source="-elTecYeYdrrboDG4D2M-54" target="-elTecYeYdrrboDG4D2M-46" edge="1">
          <mxGeometry relative="1" as="geometry" />
        </mxCell>
        <mxCell id="-elTecYeYdrrboDG4D2M-57" value="Yes" style="edgeLabel;html=1;align=center;verticalAlign=middle;resizable=0;points=[];" parent="-elTecYeYdrrboDG4D2M-56" vertex="1" connectable="0">
          <mxGeometry x="-0.3143" y="1" relative="1" as="geometry">
            <mxPoint as="offset" />
          </mxGeometry>
        </mxCell>
        <mxCell id="-elTecYeYdrrboDG4D2M-59" style="edgeStyle=orthogonalEdgeStyle;rounded=0;orthogonalLoop=1;jettySize=auto;html=1;exitX=0.5;exitY=1;exitDx=0;exitDy=0;strokeColor=#80FF00;" parent="1" source="-elTecYeYdrrboDG4D2M-54" target="-elTecYeYdrrboDG4D2M-55" edge="1">
          <mxGeometry relative="1" as="geometry" />
        </mxCell>
        <mxCell id="-elTecYeYdrrboDG4D2M-60" value="No" style="edgeLabel;html=1;align=center;verticalAlign=middle;resizable=0;points=[];" parent="-elTecYeYdrrboDG4D2M-59" vertex="1" connectable="0">
          <mxGeometry x="0.24" y="1" relative="1" as="geometry">
            <mxPoint as="offset" />
          </mxGeometry>
        </mxCell>
        <mxCell id="-elTecYeYdrrboDG4D2M-54" value="Is logged in&lt;div&gt;and has email&lt;/div&gt;" style="rhombus;whiteSpace=wrap;html=1;" parent="1" vertex="1">
          <mxGeometry x="780" y="25" width="80" height="80" as="geometry" />
        </mxCell>
        <mxCell id="-elTecYeYdrrboDG4D2M-64" style="edgeStyle=orthogonalEdgeStyle;rounded=0;orthogonalLoop=1;jettySize=auto;html=1;exitX=0.5;exitY=1;exitDx=0;exitDy=0;entryX=0.5;entryY=0;entryDx=0;entryDy=0;strokeColor=#80FF00;" parent="1" source="-elTecYeYdrrboDG4D2M-55" target="-elTecYeYdrrboDG4D2M-58" edge="1">
          <mxGeometry relative="1" as="geometry" />
        </mxCell>
        <mxCell id="-elTecYeYdrrboDG4D2M-55" value="Question" style="rounded=0;whiteSpace=wrap;html=1;" parent="1" vertex="1">
          <mxGeometry x="760" y="135" width="120" height="60" as="geometry" />
        </mxCell>
        <mxCell id="-elTecYeYdrrboDG4D2M-65" style="edgeStyle=orthogonalEdgeStyle;rounded=0;orthogonalLoop=1;jettySize=auto;html=1;exitX=0.5;exitY=1;exitDx=0;exitDy=0;entryX=0.5;entryY=0;entryDx=0;entryDy=0;strokeColor=#80FF00;" parent="1" source="-elTecYeYdrrboDG4D2M-58" target="-elTecYeYdrrboDG4D2M-8" edge="1">
          <mxGeometry relative="1" as="geometry" />
        </mxCell>
        <mxCell id="-elTecYeYdrrboDG4D2M-66" value="No" style="edgeLabel;html=1;align=center;verticalAlign=middle;resizable=0;points=[];" parent="-elTecYeYdrrboDG4D2M-65" vertex="1" connectable="0">
          <mxGeometry x="-0.2639" y="1" relative="1" as="geometry">
            <mxPoint as="offset" />
          </mxGeometry>
        </mxCell>
        <mxCell id="-elTecYeYdrrboDG4D2M-67" style="edgeStyle=orthogonalEdgeStyle;rounded=0;orthogonalLoop=1;jettySize=auto;html=1;exitX=1;exitY=0.5;exitDx=0;exitDy=0;entryX=1;entryY=1;entryDx=0;entryDy=0;strokeColor=#80FF00;" parent="1" source="-elTecYeYdrrboDG4D2M-58" target="-elTecYeYdrrboDG4D2M-46" edge="1">
          <mxGeometry relative="1" as="geometry">
            <Array as="points">
              <mxPoint x="910" y="262" />
              <mxPoint x="910" y="-55" />
            </Array>
          </mxGeometry>
        </mxCell>
        <mxCell id="-elTecYeYdrrboDG4D2M-68" value="Yes" style="edgeLabel;html=1;align=center;verticalAlign=middle;resizable=0;points=[];" parent="-elTecYeYdrrboDG4D2M-67" vertex="1" connectable="0">
          <mxGeometry x="-0.8887" y="-4" relative="1" as="geometry">
            <mxPoint y="-4" as="offset" />
          </mxGeometry>
        </mxCell>
        <mxCell id="-elTecYeYdrrboDG4D2M-58" value="Anon?" style="rhombus;whiteSpace=wrap;html=1;" parent="1" vertex="1">
          <mxGeometry x="780" y="222" width="80" height="80" as="geometry" />
        </mxCell>
        <mxCell id="YMsk-EEWncmvtDYEUD41-2" style="edgeStyle=orthogonalEdgeStyle;rounded=0;orthogonalLoop=1;jettySize=auto;html=1;exitX=1;exitY=0.5;exitDx=0;exitDy=0;strokeColor=#80FF00;" parent="1" source="YMsk-EEWncmvtDYEUD41-1" edge="1">
          <mxGeometry relative="1" as="geometry">
            <mxPoint x="480" y="-75" as="targetPoint" />
          </mxGeometry>
        </mxCell>
        <mxCell id="YMsk-EEWncmvtDYEUD41-1" value="New game&lt;br&gt;Loading" style="rounded=0;whiteSpace=wrap;html=1;" parent="1" vertex="1">
          <mxGeometry x="330" y="-105" width="120" height="60" as="geometry" />
        </mxCell>
      </root>
    </mxGraphModel>
  </diagram>
</mxfile>
